<?xml version="1.0" encoding="UTF-8"?>
<svg id="Layer_1" data-name="Layer 1" xmlns="http://www.w3.org/2000/svg" viewBox="0 0 1325.58 689.55">
  <defs>
    <style>
      .cls-1 { fill: #13733a; }
      .cls-2 { fill: #262626; }
      .cls-3 { isolation: isolate; }
    </style>
  </defs>
  <g>
    <path class="cls-1" d="M897.09,225.15l-163.13,120.92-.16-26.6-71.83-65.71-71.85,65.71v26.39c-23.57-15.36-41.93-38.05-51.88-64.81l-84.05,62.48c16.87,32.28,41.04,60.15,70.31,81.42.86.63,1.73,1.24,2.6,1.86,6.33,4.48,12.9,8.65,19.67,12.49,1.87,1.06,3.76,2.1,5.67,3.1,10.55,5.61,21.57,10.44,33,14.4,1.55.54,3.12,1.06,4.68,1.57v-16.21l71.85-65.71,71.83,65.71.03,16.51c22.78-7.27,44.03-17.91,63.19-31.33,60.63-42.46,100.27-112.84,100.27-192.49,0-3.25-.07-6.49-.2-9.7h0ZM734.15,346.26c-.07.04-.12.08-.19.12v-.16l.21.03h-.03.01Z"/>
    <path class="cls-2" d="M529.96,234.85c0-73.17,59.31-132.48,132.48-132.48s132.48,59.31,132.48,132.48c0,7.24-.58,14.35-1.71,21.28l98.34-73.09C867.96,78.26,774.34,0,662.44,0c-129.71,0-234.85,105.14-234.85,234.85,0,25.67,4.12,50.37,11.74,73.49l90.78-67.47c-.11-1.99-.15-4-.15-6.02h0Z"/>
  </g>
  <g class="cls-3">
    <g class="cls-3">
      <path class="cls-1" d="M39.54,526.99c8.84-4.5,18.41-6.74,28.72-6.74s19.88,2.25,28.72,6.74c8.84,4.5,16.36,10.93,22.56,19.3,11.32,15.5,16.98,35.04,16.98,58.6s-5.66,43.1-16.98,58.61c-6.2,8.37-13.72,14.81-22.56,19.3s-18.41,6.74-28.72,6.74-19.88-2.25-28.72-6.74-16.36-10.93-22.56-19.3c-11.32-15.5-16.98-35.04-16.98-58.61s5.66-43.1,16.98-58.6c6.2-8.37,13.72-14.8,22.56-19.3ZM51.74,652.1c4.73,3.1,10.23,4.65,16.51,4.65s11.78-1.55,16.51-4.65c4.73-3.1,8.45-7.25,11.16-12.44,2.71-5.19,4.69-10.7,5.93-16.51,1.24-5.81,1.86-11.9,1.86-18.26s-.62-12.44-1.86-18.26c-1.24-5.81-3.22-11.32-5.93-16.51-2.71-5.19-6.44-9.34-11.16-12.44-4.73-3.1-10.23-4.65-16.51-4.65s-11.78,1.55-16.51,4.65c-4.73,3.1-8.41,7.25-11.05,12.44-2.64,5.2-4.61,10.7-5.93,16.51-1.32,5.81-1.98,11.9-1.98,18.26s.66,12.44,1.98,18.26c1.32,5.81,3.29,11.32,5.93,16.51,2.63,5.2,6.32,9.34,11.05,12.44Z"/>
      <path class="cls-1" d="M232.56,627.22v-103.72h32.79v103.72c0,19.54-5.2,34.81-15.58,45.81-10.39,11.01-24.73,16.51-43.02,16.51s-32.33-5.35-42.56-16.05c-10.55-10.85-15.81-26.28-15.81-46.28v-103.72h32.79v103.72c0,11.48,2.13,19.27,6.4,23.37,4.26,4.11,10.66,6.16,19.19,6.16,3.87,0,7.17-.35,9.88-1.05,2.71-.7,5.35-2.01,7.91-3.95,2.56-1.94,4.53-4.96,5.93-9.07,1.4-4.11,2.09-9.26,2.09-15.46Z"/>
      <path class="cls-1" d="M272.09,523.5h111.4v32.79h-39.3v130h-32.79v-130h-39.3v-32.79Z"/>
      <path class="cls-1" d="M424.88,621.17v32.33h72.56v32.79h-105.35v-162.79h103.72v32.79h-70.93v32.33h66.05v32.56h-66.05Z"/>
      <path class="cls-1" d="M622.79,583.03c0,13.18-2.64,24.65-7.91,34.42-5.27,9.77-12.56,16.74-21.86,20.93l28.84,47.91h-32.79l-26.28-43.72h-17.44v43.72h-32.79v-162.79h61.16c14.42,0,26.2,5.54,35.35,16.63,9.15,11.09,13.72,25.39,13.72,42.91ZM545.34,556.29v53.49h28.37c3.56,0,6.59-1.16,9.07-3.49,2.48-2.33,4.19-5.35,5.12-9.07.93-3.72,1.51-6.59,1.75-8.6.23-2.01.35-3.84.35-5.47s-.12-3.49-.35-5.58c-.23-2.09-.81-4.96-1.75-8.6-.93-3.64-2.64-6.67-5.12-9.07-2.48-2.4-5.5-3.6-9.07-3.6h-28.37Z"/>
    </g>
    <g class="cls-3">
      <path class="cls-2" d="M767.43,622.1l25.12-98.61h32.79l-41.4,162.79h-32.79l-25.12-98.61-25.35,98.61h-32.56l-41.63-162.79h32.79l25.12,98.61,25.12-98.61h32.79l25.12,98.61Z"/>
      <path class="cls-2" d="M863.95,526.99c8.84-4.5,18.41-6.74,28.72-6.74s19.88,2.25,28.72,6.74c8.84,4.5,16.36,10.93,22.56,19.3,11.32,15.5,16.98,35.04,16.98,58.6s-5.66,43.1-16.98,58.61c-6.2,8.37-13.72,14.81-22.56,19.3s-18.41,6.74-28.72,6.74-19.88-2.25-28.72-6.74-16.36-10.93-22.56-19.3c-11.32-15.5-16.98-35.04-16.98-58.61s5.66-43.1,16.98-58.6c6.2-8.37,13.72-14.8,22.56-19.3ZM876.15,652.1c4.73,3.1,10.23,4.65,16.51,4.65s11.78-1.55,16.51-4.65c4.73-3.1,8.45-7.25,11.16-12.44,2.71-5.19,4.69-10.7,5.93-16.51,1.24-5.81,1.86-11.9,1.86-18.26s-.62-12.44-1.86-18.26c-1.24-5.81-3.22-11.32-5.93-16.51-2.71-5.19-6.43-9.34-11.16-12.44-4.73-3.1-10.23-4.65-16.51-4.65s-11.78,1.55-16.51,4.65c-4.73,3.1-8.41,7.25-11.05,12.44-2.64,5.2-4.61,10.7-5.93,16.51-1.32,5.81-1.98,11.9-1.98,18.26s.66,12.44,1.98,18.26c1.32,5.81,3.29,11.32,5.93,16.51,2.63,5.2,6.32,9.34,11.05,12.44Z"/>
      <path class="cls-2" d="M1084.64,583.03c0,13.18-2.64,24.65-7.91,34.42-5.27,9.77-12.56,16.74-21.86,20.93l28.84,47.91h-32.79l-26.28-43.72h-17.44v43.72h-32.79v-162.79h61.16c14.42,0,26.2,5.54,35.35,16.63,9.15,11.09,13.72,25.39,13.72,42.91ZM1007.2,556.29v53.49h28.37c3.56,0,6.59-1.16,9.07-3.49,2.48-2.33,4.19-5.35,5.12-9.07.93-3.72,1.51-6.59,1.74-8.6.23-2.01.35-3.84.35-5.47s-.12-3.49-.35-5.58-.81-4.96-1.74-8.6c-.93-3.64-2.64-6.67-5.12-9.07-2.48-2.4-5.5-3.6-9.07-3.6h-28.37Z"/>
      <path class="cls-2" d="M1164.64,598.38h.23l47.44,87.91h-32.79l-31.63-58.84-16.98,29.3v29.54h-32.79v-162.79h32.79v76.51l44.19-76.51h32.79l-43.26,74.88Z"/>
      <path class="cls-2" d="M1266.04,553.03c-2.48,0-4.85.2-7.09.58-2.25.39-4.62,1.05-7.09,1.98-2.48.93-4.46,2.44-5.93,4.53-1.47,2.09-2.21,4.62-2.21,7.56,0,3.57,2.36,6.9,7.09,10,4.73,3.1,12.36,6.98,22.91,11.63,15.19,6.67,25.97,12.48,32.33,17.44,13.02,10.08,19.54,22.56,19.54,37.44,0,12.87-5.51,23.65-16.51,32.33-11.01,8.68-24.73,13.02-41.16,13.02s-30.16-4.26-40.23-12.79c-11.16-9.61-16.74-23.18-16.74-40.7h32.79c0,2.95.23,5.47.7,7.56s1.43,4.23,2.91,6.4c1.47,2.17,3.95,3.84,7.44,5s7.87,1.74,13.14,1.74c7.13,0,13.06-1.32,17.79-3.95,4.73-2.63,7.09-5.5,7.09-8.61,0-4.65-2.48-8.68-7.44-12.09-4.96-3.41-13.26-7.67-24.88-12.79-14.57-6.51-24.81-12.01-30.7-16.51-12.56-9.46-18.84-21.16-18.84-35.12,0-15.04,5.73-26.98,17.21-35.81,9.92-7.75,22.56-11.63,37.91-11.63s28.53,4.5,40,13.49c13.02,10.23,19.54,23.02,19.54,38.37h-32.79c0-5.43-2.79-9.96-8.37-13.61-5.58-3.64-11.71-5.46-18.37-5.46Z"/>
    </g>
  </g>
</svg>
