<?xml version="1.0" encoding="UTF-8"?>
<svg id="Layer_1" xmlns="http://www.w3.org/2000/svg" version="1.1" viewBox="0 0 1670.4 1944">
  <!-- Generator: Adobe Illustrator 30.1.0, SVG Export Plug-In . SVG Version: 2.1.1 Build 136)  -->
  <defs>
    <style>
      .st0, .st1 {
        fill: #262626;
      }

      .st2 {
        fill: #13733a;
      }

      .st1 {
        letter-spacing: 0em;
      }

      .st3 {
        font-family: AgainsRegular, Agains;
        font-size: 232.56px;
      }
    </style>
  </defs>
  <g>
    <path class="st2" d="M1069.85,835.01l-163.13,120.92-.16-26.6-71.83-65.71-71.85,65.71v26.39c-23.57-15.36-41.93-38.05-51.88-64.81l-84.05,62.48c16.87,32.28,41.04,60.15,70.31,81.42.86.63,1.73,1.24,2.6,1.86,6.33,4.48,12.9,8.65,19.67,12.49,1.87,1.06,3.76,2.1,5.67,3.1,10.55,5.61,21.57,10.44,33,14.4,1.55.54,3.12,1.06,4.68,1.57v-16.21l71.85-65.71,71.83,65.71.03,16.51c22.78-7.27,44.03-17.91,63.19-31.33,60.63-42.46,100.27-112.84,100.27-192.49,0-3.25-.07-6.49-.2-9.7ZM906.91,956.12c-.07.04-.12.08-.19.12v-.16l.21.03h-.03Z"/>
    <path class="st0" d="M702.72,844.71c0-73.17,59.31-132.48,132.48-132.48s132.48,59.31,132.48,132.48c0,7.24-.58,14.35-1.71,21.28l98.34-73.09c-23.59-104.78-117.21-183.04-229.11-183.04-129.71,0-234.85,105.14-234.85,234.85,0,25.67,4.12,50.37,11.74,73.49l90.78-67.47c-.11-1.99-.15-4-.15-6.02Z"/>
  </g>
  <text class="st3" transform="translate(168.81 1296.15)"><tspan class="st2" x="0" y="0">OUTER</tspan><tspan class="st1" x="630.92" y="0">WORKS</tspan></text>
</svg>